<svg id="Layer_1" enable-background="new 0 0 512 512" height="512" viewBox="0 0 512 512" width="512" xmlns="http://www.w3.org/2000/svg"><g><g><path d="m256.303 472h-16c-114.875 0-208-93.125-208-208 0-114.875 93.125-208 208-208h16c114.875 0 208 93.125 208 208-.001 114.875-93.125 208-208 208z" fill="#8caac8"/></g><g><circle cx="240.302" cy="264" fill="#d7e6f0" r="208"/></g><g><g><circle cx="240.302" cy="136" fill="#8caac8" r="8"/></g><g><circle cx="256.302" cy="112" fill="#8caac8" r="8"/></g><g><circle cx="272.302" cy="88" fill="#8caac8" r="8"/></g></g><g><g><circle cx="240.302" cy="392" fill="#8caac8" r="8"/></g><g><circle cx="224.302" cy="416" fill="#8caac8" r="8"/></g><g><circle cx="208.302" cy="440" fill="#8caac8" r="8"/></g></g><g><g><circle cx="149.793" cy="173.49" fill="#8caac8" r="8"/></g><g><circle cx="144.136" cy="145.206" fill="#8caac8" r="8"/></g><g><circle cx="138.479" cy="116.922" fill="#8caac8" r="8"/></g></g><g><g><circle cx="330.812" cy="354.51" fill="#8caac8" r="8"/></g><g><circle cx="336.469" cy="382.794" fill="#8caac8" r="8"/></g><g><circle cx="342.126" cy="411.078" fill="#8caac8" r="8"/></g></g><g><g><circle cx="112.302" cy="264" fill="#8caac8" r="8"/></g><g><circle cx="88.302" cy="248" fill="#8caac8" r="8"/></g><g><circle cx="64.302" cy="232" fill="#8caac8" r="8"/></g></g><g><g><circle cx="368.302" cy="264" fill="#8caac8" r="8"/></g><g><circle cx="392.302" cy="280" fill="#8caac8" r="8"/></g><g><circle cx="416.302" cy="296" fill="#8caac8" r="8"/></g></g><g><g><circle cx="149.793" cy="354.51" fill="#8caac8" r="8"/></g><g><circle cx="121.508" cy="360.167" fill="#8caac8" r="8"/></g><g><circle cx="93.224" cy="365.823" fill="#8caac8" r="8"/></g></g><g><g><circle cx="330.812" cy="173.49" fill="#8caac8" r="8"/></g><g><circle cx="359.096" cy="167.833" fill="#8caac8" r="8"/></g><g><circle cx="387.381" cy="162.177" fill="#8caac8" r="8"/></g></g><g><path d="m240.303 360h-16c-53.019 0-96-42.981-96-96 0-53.019 42.981-96 96-96h16c53.019 0 96 42.981 96 96-.001 53.019-42.981 96-96 96z" fill="#463c4b"/></g><g><circle cx="224.302" cy="264" fill="#555a6e" r="96"/></g><g><circle cx="224.302" cy="264" fill="#463c4b" r="40"/></g><g><circle cx="224.302" cy="200" fill="#463c4b" r="8"/></g><g><circle cx="224.302" cy="330.667" fill="#463c4b" r="8"/></g><g><circle cx="178.105" cy="219.136" fill="#463c4b" r="8"/></g><g><circle cx="270.5" cy="311.531" fill="#463c4b" r="8"/></g><g><circle cx="158.969" cy="265.333" fill="#463c4b" r="8"/></g><g><circle cx="289.636" cy="265.333" fill="#463c4b" r="8"/></g><g><circle cx="178.105" cy="311.531" fill="#463c4b" r="8"/></g><g><circle cx="270.5" cy="219.136" fill="#463c4b" r="8"/></g><g><g><path d="m256.302 40h-16c-8.837 0-16 7.163-16 16v56.836c0 8.147 6.115 15.056 14.218 15.898 39.326 4.085 73.673 24.929 95.775 55.266 13.705 18.811 22.702 41.273 25.259 65.652.855 8.151 7.71 14.348 15.905 14.348h88.229c9.315 0 16.668-7.928 15.962-17.216-8.791-115.668-105.428-206.784-223.348-206.784z" fill="#d73228"/></g><g><path d="m224.302 56.614v56.084c0 8.206 6.144 15.192 14.305 16.045 40.432 4.227 75.592 26.168 97.582 57.923 12.628 18.236 20.913 39.709 23.358 62.922.861 8.176 7.694 14.412 15.915 14.412h56.226c9.315 0 16.668-7.928 15.962-17.216-8.359-109.986-96.147-197.773-206.132-206.132-9.288-.706-17.216 6.647-17.216 15.962z" fill="#f04b37"/></g></g><g><circle cx="264.302" cy="88" fill="#d7e6f0" r="16"/></g><g><circle cx="400.302" cy="224" fill="#d7e6f0" r="16"/></g></g></svg>