<svg xmlns="http://www.w3.org/2000/svg" version="1.1" xmlns:xlink="http://www.w3.org/1999/xlink" width="512" height="512" x="0" y="0" viewBox="0 0 58 58" style="enable-background:new 0 0 512 512" xml:space="preserve" class=""><g><g fill="none" fill-rule="evenodd"><path fill="#4a4a4a" fill-rule="nonzero" d="M8.55 18H4a2.006 2.006 0 0 0-2 2 2.015 2.015 0 0 0 2 2h2.78z" opacity="1" data-original="#c03a2b" class=""></path><path fill="#b0d3f0" fill-rule="nonzero" d="m4 26 6.94-15.62A4.011 4.011 0 0 1 14.6 8H28l2 19z" opacity="1" data-original="#b0d3f0" class=""></path><path fill="#ffffff" fill-rule="nonzero" d="M13 22a1 1 0 0 1-.634-1.774l11-9a1 1 0 1 1 1.266 1.548l-11 9A.994.994 0 0 1 13 22z" opacity="1" data-original="#ffffff" class=""></path><path fill="#2583ff" fill-rule="nonzero" d="M30 50H4.288A4.151 4.151 0 0 1 0 46V30a4.149 4.149 0 0 1 4.286-4H30z" opacity="1" data-original="#e64c3c" class=""></path><path fill="#656565" fill-rule="nonzero" d="M17 42v-6a2 2 0 0 1 2-2h10v8z" opacity="1" data-original="#802f34" class=""></path><path fill="#2c3e50" fill-rule="nonzero" d="M4 49h12v5a4 4 0 0 1-4 4H8a4 4 0 0 1-4-4z" opacity="1" data-original="#2c3e50" class=""></path><circle cx="8" cy="34" r="3" fill="#f9eab0" fill-rule="nonzero" opacity="1" data-original="#f9eab0" class=""></circle><path stroke="#000" stroke-linecap="round" stroke-linejoin="round" stroke-width="2" d="M24 46h4" fill="" opacity="1"></path><g fill-rule="nonzero"><path fill="#4a4a4a" d="M30 42v8H4.288A4.15 4.15 0 0 1 0 46v-4z" opacity="1" data-original="#c03a2b" class=""></path><path fill="#ecf0f1" d="M17 38h12v4H17z" opacity="1" data-original="#ecf0f1" class=""></path><path fill="#f3d55b" d="M49 4h6a3 3 0 0 1 3 3v44a3 3 0 0 1-3 3H31a3 3 0 0 1-3-3V7a3 3 0 0 1 3-3z" opacity="1" data-original="#f3d55b" class=""></path><path fill="#547580" d="M49 4a2.015 2.015 0 0 1-2 2h-8a2.006 2.006 0 0 1-2-2 2.015 2.015 0 0 1 2-2h1.18a2.988 2.988 0 0 1 5.64 0H47a2.006 2.006 0 0 1 2 2z" opacity="1" data-original="#547580" class=""></path><path fill="#35495e" d="M44 13H32a1 1 0 0 1 0-2h12a1 1 0 0 1 0 2zM38 17h-6a1 1 0 0 1 0-2h6a1 1 0 0 1 0 2z" opacity="1" data-original="#35495e" class=""></path><path fill="#4fba6f" d="M49 27a1 1 0 0 1-.707-.293l-1-1a1 1 0 0 1 1.414-1.414l.367.367 4.3-3.441a1 1 0 0 1 1.25 1.562l-5 4A1 1 0 0 1 49 27z" opacity="1" data-original="#4fba6f" class=""></path><path fill="#35495e" d="M44 23H32a1 1 0 0 1 0-2h12a1 1 0 0 1 0 2zM38 27h-6a1 1 0 0 1 0-2h6a1 1 0 0 1 0 2z" opacity="1" data-original="#35495e" class=""></path><path fill="#4fba6f" d="M49 37a1 1 0 0 1-.707-.293l-1-1a1 1 0 0 1 1.414-1.414l.367.367 4.3-3.441a1 1 0 1 1 1.25 1.562l-5 4A1 1 0 0 1 49 37z" opacity="1" data-original="#4fba6f" class=""></path><path fill="#35495e" d="M44 33H32a1 1 0 0 1 0-2h12a1 1 0 0 1 0 2zM38 37h-6a1 1 0 0 1 0-2h6a1 1 0 0 1 0 2z" opacity="1" data-original="#35495e" class=""></path><path fill="#4fba6f" d="M49 47a1 1 0 0 1-.707-.293l-1-1a1 1 0 0 1 1.414-1.414l.367.367 4.3-3.441a1 1 0 1 1 1.25 1.562l-5 4A1 1 0 0 1 49 47z" opacity="1" data-original="#4fba6f" class=""></path><path fill="#35495e" d="M44 43H32a1 1 0 0 1 0-2h12a1 1 0 0 1 0 2zM38 47h-6a1 1 0 0 1 0-2h6a1 1 0 0 1 0 2z" opacity="1" data-original="#35495e" class=""></path><path fill="#4fba6f" d="M49 17a1 1 0 0 1-.707-.293l-1-1a1 1 0 0 1 1.414-1.414l.367.367 4.3-3.441a1 1 0 1 1 1.25 1.562l-5 4A1 1 0 0 1 49 17z" opacity="1" data-original="#4fba6f" class=""></path></g></g></g></svg>