<svg id="Flat" height="512" viewBox="0 0 512 512" width="512" xmlns="http://www.w3.org/2000/svg"><g id="Car-lighting-lamp_copy" data-name="Car-lighting-lamp copy"><path d="m360.94 280c43.66 0 47.06 42.98 47.06 96s-3.4 96-47.06 96c-.31 0-.62 0-.94-.01v-191.98c.32-.01.63-.01.94-.01z" fill="#ffd44c"/><path d="m408 376c0 53.02-3.4 96-47.06 96-.31 0-.62 0-.94-.01v-28c.32.01.63.01.94.01 39.74 0 46.13-35.62 46.95-82q.12 6.855.11 14z" fill="#ffba0d"/><path d="m328 286.39c11.21-4 22.22-6.25 32-6.38v191.98c-43.7-.6-112-43.35-112-95.99 0-40.86 41.14-75.76 80-89.61z" fill="#808285"/><path d="m360 444.18v27.81c-43.7-.6-112-43.35-112-95.99 0-26.39 17.17-50.3 39.8-67.65-9.71 13.09-15.8 27.93-15.8 43.65 0 43.68 47.02 80.55 88 92.18z" fill="#626466"/><g fill="#ffba0d"><path d="m432 368h64v16h-64z"/><path d="m427.751 288h64.498v16.001h-64.498z" transform="matrix(.868 -.496 .496 .868 -86.249 267.22)"/><path d="m452 423.751h16.001v64.498h-16.001z" transform="matrix(.496 -.868 .868 .496 -164.143 629.152)"/></g><path d="m320 304h16v72h-16z" fill="#626466"/><path d="m320 392h16v16h-16z" fill="#626466"/><path d="m360.94 40c43.66 0 47.06 42.98 47.06 96s-3.4 96-47.06 96c-.31 0-.62 0-.94-.01v-191.98c.32-.01.63-.01.94-.01z" fill="#ffd44c"/><path d="m408 136c0 53.02-3.4 96-47.06 96-.31 0-.62 0-.94-.01v-28c.32.01.63.01.94.01 39.74 0 46.13-35.62 46.95-82q.12 6.855.11 14z" fill="#ffba0d"/><path d="m328 46.39c11.21-4 22.22-6.25 32-6.38v191.98c-43.7-.6-112-43.35-112-95.99 0-40.86 41.14-75.76 80-89.61z" fill="#808285"/><path d="m360 204.18v27.81c-43.7-.6-112-43.35-112-95.99 0-26.39 17.17-50.3 39.8-67.65-9.71 13.09-15.8 27.93-15.8 43.65 0 43.68 47.02 80.55 88 92.18z" fill="#626466"/><path d="m432 128h64v16h-64z" fill="#ffba0d"/><path d="m427.751 48h64.498v16.001h-64.498z" fill="#ffba0d" transform="matrix(.868 -.496 .496 .868 32.823 235.599)"/><path d="m452 183.751h16.001v64.498h-16.001z" fill="#ffba0d" transform="matrix(.496 -.868 .868 .496 44.236 508.226)"/><path d="m320 64h16v72h-16z" fill="#626466"/><path d="m320 152h16v16h-16z" fill="#626466"/><path d="m200 360v32a16 16 0 0 1 -16 16h-128a16 16 0 0 1 -16-16v-32z" fill="#808285"/><path d="m184 408v16a16 16 0 0 1 -16 16h-96a16 16 0 0 1 -16-16v-16z" fill="#d1d3d4"/><path d="m96 408h-40a16 16 0 0 1 -16-16v-32h40v32a16 16 0 0 0 16 16z" fill="#626466"/><path d="m112 440h-40a16 16 0 0 1 -16-16v-16h40v16a16 16 0 0 0 16 16z" fill="#bcbec0"/><path d="m190.63 126.63-54.63-54.63v-16a16 16 0 0 0 -32 0v16l-54.63 54.63a32 32 0 0 0 -9.37 22.62v210.75h160v-210.75a32 32 0 0 0 -9.37-22.62z" fill="#b4d7f0"/><path d="m200 336v24h-160v-210.75a32 32 0 0 1 9.37-22.62l54.63-54.63v-16a16 16 0 0 1 32 0l-46.63 46.63a32 32 0 0 0 -9.37 22.62v210.75z" fill="#82c2f0"/><path d="m144 352v-80h8a24 24 0 1 0 -24-24v8h-16v-8a24 24 0 1 0 -24 24h8v80h-80v16h208v-16zm0-104a8 8 0 1 1 8 8h-8zm-64 0a8 8 0 0 1 16 0v8h-8a8.009 8.009 0 0 1 -8-8zm32 24h16v80h-16z" fill="#414042"/><path d="m80 440h16v40h-16z" fill="#414042"/><path d="m144 440h16v40h-16z" fill="#414042"/></g></svg>