<svg viewBox="0 -82 512.002 512" xmlns="http://www.w3.org/2000/svg"><path d="m417.945312 146.566406-20.875-13.121094-20.257812-49.46875c-7.378906-18.011718-20.5625-33.042968-37.460938-42.703124l-54.722656-31.277344c-18.125-10.359375-39.71875-12.789063-59.691406-6.714844l-41.257812 12.550781-23.683594-13.550781c-2.59375-1.480469-5.417969-1.621094-7.917969-.824219l-.019531-.011719-.140625.078126c-1.316407.445312-2.527344 1.148437-3.558594 2.082031l-143.347656 83.851562c-2.921875 1.671875-5.011719 4.792969-5.011719 8.636719v34.683594l8.347656 16.976562c5.675782 11.542969 14.960938 20.921875 26.449219 26.710938l176.238281 88.8125 130.359375 75.011718c16.328125 9.394532 35.71875 11.914063 53.898438 7 40.136719-10.851562 76.273437-32.75 104.390625-63.035156 7.964844-8.578125 12.316406-19.902344 12.316406-31.609375v-11.070312c-24.167969-37.515625-56.273438-69.261719-94.054688-93.007813zm0 0" fill="#ed5100"/><path d="m417.945312 146.566406-20.875-13.121094-8.503906 4.992188 82.960938 109.085938-71.371094 39.496093-141.71875-72.203125-6.472656 3.800782 21.1875 13.316406c25.972656 16.324218 60.820312 54.277344 79.871094 76.164062 8.789062 10.101563 22.3125 14.707032 35.449218 12.136719 50.09375-9.8125 94.402344-38.742187 123.53125-80.664063-24.171875-37.511718-56.277344-69.257812-94.058594-93.003906zm0 0" fill="#e33400"/><path d="m116.855469 181.40625-40.375-28.402344c-5.9375-14.84375-15.832031-28.035156-27.039063-34.507812-18.167968-10.488282-32.894531.644531-32.894531 24.871094 0 24.222656 14.726563 52.359374 32.894531 62.847656 8.613282 4.972656 16.445313 5.078125 22.308594 1.242187zm0 0" fill="#23292e"/><path d="m348.15625 313.8125-40.375-28.402344c-5.9375-14.84375-15.832031-28.035156-27.039062-34.503906-18.167969-10.488281-32.894532.644531-32.894532 24.867188 0 24.222656 14.726563 52.359374 32.894532 62.851562 8.613281 4.96875 16.445312 5.078125 22.308593 1.242188zm0 0" fill="#23292e"/><path d="m388.472656 320.234375c-13.140625 2.570313-26.664062-2.035156-35.453125-12.136719-19.050781-21.886718-53.898437-59.839844-79.867187-76.164062l-21.191406-13.316406-20.257813-49.46875c-7.375-18.011719-20.558594-33.042969-37.460937-42.703126l-54.71875-31.277343c-18.125-10.359375-39.71875-12.789063-59.695313-6.714844l-41.257813 12.550781-23.679687-13.546875c-6.632813-3.796875-14.890625.992188-14.890625 8.636719v34.683594l8.347656 16.976562c5.675782 11.542969 14.960938 20.921875 26.449219 26.710938l176.238281 88.8125 130.359375 75.011718c16.328125 9.394532 35.71875 11.914063 53.898438 7 40.136719-10.851562 76.273437-32.75 104.390625-63.035156 7.964844-8.578125 12.316406-19.902344 12.316406-31.609375v-11.070312c-29.128906 41.917969-73.433594 70.847656-123.527344 80.660156zm0 0" fill="#872e02"/><path d="m38.574219 101.003906 145.105469-85.171875-23.683594-13.550781c-2.59375-1.480469-5.417969-1.621094-7.917969-.824219l-.019531-.011719-.140625.078126c-1.316407.445312-2.527344 1.148437-3.558594 2.082031l-143.347656 83.851562c-2.921875 1.671875-5.011719 4.792969-5.011719 8.636719v34.683594l8.347656 16.976562c5.675782 11.542969 14.960938 20.921875 26.449219 26.710938l176.238281 88.8125 67.105469 38.613281v-29.890625zm0 0" fill="#e33400"/><path d="m501.5 260.867188v13.085937c-26.691406 27.035156-59.507812 48.308594-95.671875 59.957031l-14.285156 4.597656v-14.039062l22.628906-7.222656c29.988281-9.570313 57.242187-26.199219 79.46875-48.492188zm0 0" fill="#23292e"/><path d="m313.636719 313.753906c0 24.222656-14.726563 35.355469-32.894531 24.867188-18.167969-10.488282-32.894532-38.625-32.894532-62.847656 0-24.222657 14.726563-35.355469 32.894532-24.867188 18.167968 10.488281 32.894531 38.625 32.894531 62.847656zm0 0" fill="#2e373d"/><path d="m296.914062 304.101562c0 11.910157-7.238281 17.382813-16.171874 12.226563-8.933594-5.15625-16.171876-18.992187-16.171876-30.902344 0-11.910156 7.238282-17.382812 16.171876-12.226562 8.933593 5.15625 16.171874 18.992187 16.171874 30.902343zm0 0" fill="#cecece"/><path d="m289.515625 299.828125c0 6.460937-3.929687 9.425781-8.773437 6.632813-4.84375-2.796876-8.773438-10.300782-8.773438-16.761719 0-6.457031 3.929688-9.429688 8.773438-6.628907 4.84375 2.792969 8.773437 10.296876 8.773437 16.757813zm0 0" fill="#627681"/><path d="m82.335938 181.347656c0 24.226563-14.726563 35.359375-32.894532 24.871094-18.167968-10.492188-32.894531-38.628906-32.894531-62.851562 0-24.222657 14.726563-35.355469 32.894531-24.867188 18.167969 10.488281 32.894532 38.625 32.894532 62.847656zm0 0" fill="#2e373d"/><path d="m65.613281 171.695312c0 11.910157-7.238281 17.382813-16.171875 12.226563-8.929687-5.15625-16.171875-18.992187-16.171875-30.902344 0-11.910156 7.242188-17.382812 16.171875-12.226562 8.933594 5.15625 16.171875 18.992187 16.171875 30.902343zm0 0" fill="#cecece"/><path d="m58.214844 167.421875c0 6.460937-3.929688 9.425781-8.773438 6.628906s-8.773437-10.300781-8.773437-16.757812c0-6.460938 3.929687-9.429688 8.773437-6.632813s8.773438 10.300782 8.773438 16.761719zm0 0" fill="#627681"/><path d="m258.4375 214.816406 130.128906-76.382812-19.835937-47.097656c-2.695313-6.402344-10.398438-8.992188-16.417969-5.515626l-105.808594 61.085938c-6.929687 4-9.886718 12.46875-6.957031 19.914062zm0 0" fill="#3b2f25"/><path d="m237.765625 214.992188-17.75-47.128907c-3.347656-8.886719-9.628906-16.363281-17.804687-21.191406l-71.1875-42.035156c-7.570313-4.46875-16.808594-5.082031-24.902344-1.652344l-11.015625 4.667969c-10.257813 4.347656-11.128907 18.550781-1.480469 24.121094zm0 0" fill="#24170c"/><path d="m378.015625 134.359375-17.746094-47.132813c-.371093-.980468-.789062-1.9375-1.230469-2.882812-2.253906-.191406-4.59375.246094-6.726562 1.476562l-29.183594 16.847657zm0 0" fill="#625951"/><path d="m491.75 205.550781c-1.15625 0-2.3125.328125-3.429688.972657l-12.914062 7.457031-21.976562 9.800781 18.097656 23.742188c1.132812 1.15625 2.621094 1.753906 4.097656 1.753906 1.15625 0 2.3125-.328125 3.429688-.976563l12.917968-7.457031c3.34375-1.929688 5.867188-6.609375 5.867188-10.882812v-17.21875c0-4.722657-3.066406-7.191407-6.089844-7.191407zm0 0" fill="#872e02"/><path d="m491.75 205.550781c-1.15625 0-2.3125.328125-3.429688.972657l-12.914062 7.457031c-3.347656 1.929687-5.867188 6.609375-5.867188 10.882812v17.222657c0 4.722656 3.0625 7.191406 6.085938 7.191406 1.15625 0 2.3125-.328125 3.429688-.972656l12.917968-7.457032c3.34375-1.933594 5.867188-6.609375 5.867188-10.882812v-17.222656c0-4.722657-3.066406-7.191407-6.089844-7.191407zm0 0" fill="#e33400"/><path d="m490.144531 237.683594-12.914062 7.457031c-2.234375 1.289063-4.042969-.082031-4.042969-3.054687v-17.222657c0-2.976562 1.808594-6.433593 4.042969-7.722656l12.914062-7.457031c2.234375-1.285156 4.042969.082031 4.042969 3.058594v17.21875c0 2.976562-1.808594 6.433593-4.042969 7.722656zm0 0" fill="#fff"/><path d="m208.453125 230.511719-108.027344-70.597657v39.035157l108.027344 58.039062zm0 0" fill="#872e02"/><path d="m100.425781 159.914062 46.132813 30.148438-30.917969-14.957031v27.105469l30.917969 21.523437-46.132813-24.785156zm0 0" fill="#23292e"/><path d="m394.066406 262.605469c-1.15625 0-2.308594.328125-3.429687.976562l-12.914063 7.457031-30.121094 13.429688 26.226563 20.101562c1.136719 1.164063 2.628906 1.765626 4.113281 1.765626 1.15625 0 2.3125-.328126 3.429688-.976563l12.917968-7.457031c3.34375-1.929688 5.867188-6.609375 5.867188-10.882813v-17.21875c0-4.722656-3.0625-7.195312-6.089844-7.195312zm0 0" fill="#872e02"/><path d="m394.066406 262.605469c-1.15625 0-2.308594.328125-3.429687.976562l-12.914063 7.457031c-3.34375 1.929688-5.867187 6.609376-5.867187 10.882813v17.21875c0 4.722656 3.0625 7.195313 6.089843 7.195313 1.15625 0 2.308594-.328126 3.429688-.976563l12.914062-7.457031c3.347657-1.929688 5.867188-6.609375 5.867188-10.882813v-17.21875c0-4.722656-3.0625-7.195312-6.089844-7.195312zm0 0" fill="#e33400"/><path d="m392.464844 294.742188-12.917969 7.457031c-2.230469 1.289062-4.039063-.082031-4.039063-3.058594v-17.21875c0-2.976563 1.808594-6.433594 4.039063-7.722656l12.917969-7.457031c2.230468-1.285157 4.039062.082031 4.039062 3.054687v17.222656c0 2.976563-1.808594 6.433594-4.039062 7.722657zm0 0" fill="#fff"/></svg>