<svg id="Capa_1" enable-background="new 0 0 512 512" height="512" viewBox="0 0 512 512" width="512" xmlns="http://www.w3.org/2000/svg"><g><path d="m47 94c-25.916 0-47-21.084-47-47s21.084-47 47-47 47 21.084 47 47-21.084 47-47 47z" fill="#edf5ff"/><path d="m368 512c-49.133 0-94.744-26.593-120.767-68.4-20.713 26.745-52.614 42.963-87.233 42.963-61.206 0-111-50.577-111-112.745 0-13.987 2.567-27.842 7.5-40.776-14.382-8.37-26.814-19.861-36.461-33.799-13.11-18.942-20.039-41.037-20.039-63.898 0-62.168 50.243-112.745 112-112.745.413 0 .824.002 1.237.007 3.47-50.003 44.647-89.607 94.763-89.607 29.952 0 57.957 14.524 75.704 38.207 23.773-19.281 53.591-30.061 84.296-30.061 74.439 0 135 61.54 135 137.182 0 32.436-10.917 62.986-31.018 87.517 25.592 27.255 40.018 62.879 40.018 99.828 0 38.766-15.019 75.404-42.29 103.166-27.342 27.833-63.463 43.161-101.71 43.161z" fill="#edf5ff"/><path d="m94 47c0-25.916-21.084-47-47-47v94c25.916 0 47-21.084 47-47z" fill="#d5e8fe"/><path d="m503 178.327c0-75.642-60.561-137.182-135-137.182-30.705 0-60.523 10.78-84.296 30.062-7.578-10.113-17.032-18.549-27.704-24.904v409.847c26.812 34.499 67.987 55.85 112 55.85 38.247 0 74.368-15.328 101.71-43.161 27.271-27.762 42.29-64.4 42.29-103.166 0-36.949-14.426-72.573-40.018-99.829 20.101-24.531 31.018-55.081 31.018-87.517z" fill="#d5e8fe"/><path d="m201.823 314.417c-35.743 0-64.823-29.08-64.823-64.823s29.08-64.823 64.823-64.823c12.989 0 25.525 3.832 36.254 11.08 6.865 4.638 8.669 13.962 4.032 20.827-4.638 6.864-13.964 8.668-20.827 4.032-5.75-3.885-12.479-5.938-19.459-5.938-19.201 0-34.823 15.622-34.823 34.823s15.622 34.823 34.823 34.823c6.984 0 12.828-2.05 17.368-6.094.887-.79 1.737-1.667 2.525-2.608 5.324-6.348 14.784-7.179 21.132-1.857s7.18 14.784 1.857 21.132c-1.72 2.051-3.591 3.981-5.561 5.736-10.058 8.955-22.963 13.69-37.321 13.69z" fill="#4a696f"/><g fill="#384949"><path d="m326.178 315c-35.743 0-64.823-29.08-64.823-64.823s29.08-64.823 64.823-64.823 64.822 29.08 64.822 64.823-29.079 64.823-64.822 64.823zm0-99.646c-19.201 0-34.823 15.622-34.823 34.823s15.622 34.823 34.823 34.823 34.822-15.622 34.822-34.823-15.621-34.823-34.822-34.823z"/><path d="m390.496 422.289c-15.561 0-16.847-.429-18.854-1.098-4.757-1.586-8.465-5.358-9.921-10.091-2.438-7.929 1.544-13.144 6.586-19.746 3.921-5.133 11.218-14.688 23.459-32.179 3.653-5.22 5.17-8.825 5.788-11.06l.109-.857c-.313-2.399-2.369-4.257-4.852-4.257-2.645 0-4.416 1.976-4.8 3.928-1.598 8.129-9.479 13.426-17.61 11.827-8.129-1.597-13.424-9.481-11.827-17.61 3.205-16.309 17.604-28.146 34.239-28.146 19.24 0 34.893 15.652 34.893 34.892 0 .637-.04 1.272-.121 1.904l-.385 3.007c-.064.499-.152.993-.267 1.483-1.623 7.004-5.086 14.23-10.588 22.091-4.327 6.182-8.058 11.407-11.256 15.817 3.563-.029 7.199-.067 10.723-.111 8.309-.064 15.083 6.526 15.188 14.811.104 8.284-6.526 15.083-14.811 15.188-11.342.141-19.61.207-25.693.207z"/></g></g></svg>