<svg id="&#x421;&#x43B;&#x43E;&#x439;_1" enable-background="new 0 0 128 128" viewBox="0 0 128 128" xmlns="http://www.w3.org/2000/svg"><g><path d="m86.7 116h-27.8c-5.1 0-9.3-4.2-9.3-9.3v-57.1c0-5.2 4.2-9.3 9.3-9.3h27.9c5.1 0 9.3 4.2 9.3 9.3v57.1c-.1 5.1-4.2 9.3-9.4 9.3z" fill="#f37778"/><g opacity=".7"><path d="m56.6 109.7c-1.7 0-3-1.3-3-3v-57.1c0-2.9 2.4-5.3 5.3-5.3 1.7 0 3 1.3 3 3 0 1.4-1 2.6-2.3 2.9v56.5c0 1.6-1.4 3-3 3z" fill="#fff"/></g><g fill="#fff"><path d="m58.9 40.3v-9.7h27.8v9.7"/><path d="m64.9 18.5h-10.7"/><path d="m22.8 9.2 31.4 4.6v9.4l-31.4 4.6z"/><path d="m82.1 19.1h28.8"/><ellipse cx="72.8" cy="18.5" rx="9.3" ry="9.3"/><path d="m49.6 94.1h18.5v-33.9h-18.5"/></g><g><path d="m86.7 119h-27.8c-6.8 0-12.3-5.5-12.3-12.3v-57.1c0-6.8 5.5-12.3 12.3-12.3h27.9c6.8 0 12.3 5.5 12.3 12.3v57.1c-.1 6.8-5.6 12.3-12.4 12.3zm-27.8-75.7c-3.5 0-6.3 2.8-6.3 6.3v57.1c0 3.5 2.8 6.3 6.3 6.3h27.9c3.5 0 6.3-2.8 6.3-6.3v-57.1c0-3.5-2.8-6.3-6.3-6.3z" fill="#454b54"/></g><g><path d="m86.7 43.3c-1.7 0-3-1.3-3-3v-6.7h-21.8v6.7c0 1.7-1.3 3-3 3s-3-1.3-3-3v-9.7c0-1.7 1.3-3 3-3h27.9c1.7 0 3 1.3 3 3v9.7c-.1 1.6-1.4 3-3.1 3z" fill="#454b54"/></g><g><path d="m22.8 30.8c-.7 0-1.4-.3-2-.7-.7-.6-1-1.4-1-2.3v-18.6c0-.9.4-1.7 1-2.3.7-.6 1.5-.8 2.4-.7l31.4 4.7c1.5.2 2.6 1.5 2.6 3v9.3c0 1.5-1.1 2.7-2.6 3l-31.4 4.7c-.1-.1-.3-.1-.4-.1zm3-18.2v11.7l25.4-3.8v-4.2z" fill="#454b54"/></g><g><path d="m110.9 22.1h-27.9c-1.7 0-3-1.3-3-3s1.3-3 3-3h27.9c1.7 0 3 1.3 3 3s-1.4 3-3 3z" fill="#454b54"/></g><g><path d="m109.9 31.4c-.3 0-.6-.1-1-.2l-27.8-9.2c-1.6-.5-2.4-2.2-1.9-3.8s2.2-2.4 3.8-1.9l27.9 9.3c1.6.5 2.4 2.2 1.9 3.8-.4 1.2-1.6 2-2.9 2z" fill="#454b54"/></g><g><path d="m72.8 30.8c-6.8 0-12.3-5.5-12.3-12.3s5.5-12.3 12.3-12.3 12.3 5.5 12.3 12.3-5.5 12.3-12.3 12.3zm0-18.6c-3.5 0-6.3 2.8-6.3 6.3s2.8 6.3 6.3 6.3 6.3-2.8 6.3-6.3-2.8-6.3-6.3-6.3z" fill="#454b54"/></g><g><path d="m68.1 97.1h-18.5c-1.7 0-3-1.3-3-3v-33.9c0-1.7 1.3-3 3-3h18.6c1.7 0 3 1.3 3 3v33.9c-.1 1.6-1.4 3-3.1 3zm-15.5-6h12.6v-27.9h-12.6z" fill="#454b54"/></g></g></svg>