<svg height="496pt" viewBox="0 -15 496 495" width="496pt" xmlns="http://www.w3.org/2000/svg"><path d="m488 98.261719v28.476562c0 15.523438-4 30.402344-11.199219 43.523438-7.28125 13.117187-17.839843 24.398437-30.960937 32.558593-14.238282 8.960938-30.71875 13.679688-47.601563 13.679688h-390.238281c0-114.878906 93.121094-208 208-208h182.238281c49.601563 0 89.761719 40.160156 89.761719 89.761719zm0 0" fill="#e6e9ed"/><path d="m42.910156 184.5c15.089844-81.832031 86.960938-144 173.089844-144h182.238281c31.859375 0 57.761719 25.902344 57.761719 57.761719v28.484375c0 9.753906-2.503906 19.480468-7.246094 28.113281-4.664062 8.425781-11.539062 15.648437-19.816406 20.808594-9.25 5.800781-19.808594 8.832031-30.699219 8.832031zm0 0" fill="#969faa"/><path d="m408 112.5c0 39.765625-32.234375 72-72 72s-72-32.234375-72-72 32.234375-72 72-72 72 32.234375 72 72zm0 0" fill="#fcd770"/><path d="m360 112.5c0 13.253906-10.746094 24-24 24s-24-10.746094-24-24 10.746094-24 24-24 24 10.746094 24 24zm0 0" fill="#ff826e"/><path d="m201.441406 41.140625c35.277344 4.640625 62.558594 34.800781 62.558594 71.359375 0 39.761719-32.238281 72-72 72s-72-32.238281-72-72c0-25.121094 12.800781-47.199219 32.320312-60.078125 11.359376-7.523437 25.039063-11.921875 39.679688-11.921875 3.199219 0 6.320312.238281 9.359375.640625zm0 0" fill="#fcd770"/><path d="m216 112.5c0 13.253906-10.746094 24-24 24s-24-10.746094-24-24 10.746094-24 24-24 24 10.746094 24 24zm0 0" fill="#ff826e"/><path d="m488 456.5h-390.238281c-16.882813 0-33.363281-4.71875-47.601563-13.679688-13.121094-8.160156-23.679687-19.441406-30.960937-32.558593-7.199219-13.121094-11.199219-28-11.199219-43.523438v-28.476562c0-49.601563 40.160156-89.761719 89.761719-89.761719h182.238281c114.878906 0 208 93.121094 208 208zm0 0" fill="#e6e9ed"/><path d="m97.761719 424.5c-10.882813 0-21.449219-3.03125-30.5625-8.769531-8.40625-5.230469-15.277344-12.460938-20-20.984375-4.695313-8.527344-7.199219-18.253906-7.199219-28.007813v-28.476562c0-31.859375 25.902344-57.761719 57.761719-57.761719h182.238281c86.128906 0 158 62.167969 173.089844 144zm0 0" fill="#969faa"/><path d="m232 352.5c0 39.765625-32.234375 72-72 72s-72-32.234375-72-72 32.234375-72 72-72 72 32.234375 72 72zm0 0" fill="#fcd770"/><path d="m184 352.5c0 13.253906-10.746094 24-24 24s-24-10.746094-24-24 10.746094-24 24-24 24 10.746094 24 24zm0 0" fill="#ff826e"/><path d="m343.679688 292.421875c19.519531 12.878906 32.320312 34.957031 32.320312 60.078125 0 39.761719-32.238281 72-72 72s-72-32.238281-72-72c0-36.558594 27.28125-66.71875 62.558594-71.359375h.082031c3.039063-.402344 6.160156-.640625 9.359375-.640625 14.640625 0 28.320312 4.398438 39.679688 11.921875zm0 0" fill="#fcd770"/><path d="m328 352.5c0 13.253906-10.746094 24-24 24s-24-10.746094-24-24 10.746094-24 24-24 24 10.746094 24 24zm0 0" fill="#ff826e"/><path d="m346.976562 285.132812c-12.433593-7.953124-27.152343-12.632812-42.976562-12.632812-3.175781 0-6.289062.238281-9.367188.601562-4.839843-.386718-9.753906-.601562-14.632812-.601562h-182.265625c-36.246094 0-65.734375 29.496094-65.734375 65.734375v28.53125c0 22.804687 11.550781 43.644531 30.902344 55.742187 10.449218 6.535157 22.496094 9.992188 34.832031 9.992188h364.960937l-1.742187-9.457031c-11.441406-62.023438-55.097656-114.824219-113.976563-137.910157zm21.023438 67.367188c0 35.289062-28.710938 64-64 64s-64-28.710938-64-64 28.710938-64 64-64 64 28.710938 64 64zm-111.792969-64c-10.246093 7.679688-18.582031 17.726562-24.207031 29.359375-5.625-11.632813-13.953125-21.679687-24.207031-29.359375zm-96.207031 128c-35.289062 0-64-28.710938-64-64s28.710938-64 64-64 64 28.710938 64 64-28.710938 64-64 64zm-62.265625 0c-9.335937 0-18.4375-2.609375-26.351563-7.550781-14.640624-9.160157-23.382812-24.929688-23.382812-42.183594v-28.53125c0-27.421875 22.3125-49.734375 49.734375-49.734375h14.472656c-19.503906 14.601562-32.207031 37.816406-32.207031 64s12.703125 49.398438 32.207031 64zm110.058594 0c10.246093-7.679688 18.582031-17.726562 24.207031-29.359375 5.625 11.632813 13.953125 21.6875 24.207031 29.359375zm144 0c19.503906-14.601562 32.207031-37.816406 32.207031-64 0-11.886719-2.679688-23.136719-7.34375-33.28125 32.816406 23.257812 56.832031 57.898438 66.535156 97.28125zm0 0"/><path d="m280 240.5h-182.265625c-53.894531 0-97.734375 43.839844-97.734375 97.734375v28.53125c0 33.917969 17.167969 64.894531 45.9375 82.871094 15.550781 9.71875 33.460938 14.863281 51.796875 14.863281h398.265625v-8c0-119.105469-96.894531-216-216-216zm-182.265625 208c-15.335937 0-30.308594-4.296875-43.320313-12.425781-24.054687-15.039063-38.414062-40.941407-38.414062-69.308594v-28.53125c0-45.070313 36.664062-81.734375 81.734375-81.734375h182.265625c107.601562 0 195.632812 85.414062 199.839844 192zm0 0"/><path d="m304 384.5v-16c-8.824219 0-16-7.175781-16-16s7.175781-16 16-16 16 7.175781 16 16h16c0-17.648438-14.351562-32-32-32s-32 14.351562-32 32 14.351562 32 32 32zm0 0"/><path d="m160 320.5c-17.648438 0-32 14.351562-32 32s14.351562 32 32 32v-16c-8.824219 0-16-7.175781-16-16s7.175781-16 16-16 16 7.175781 16 16h16c0-17.648438-14.351562-32-32-32zm0 0"/><path d="m398.265625 32.5h-182.265625c-4.878906 0-9.769531.222656-14.558594.609375-3.105468-.371094-6.242187-.609375-9.441406-.609375-15.824219 0-30.542969 4.671875-42.96875 12.632812-58.886719 23.078126-102.550781 75.886719-113.984375 137.910157l-1.742187 9.457031h364.960937c12.335937 0 24.375-3.457031 34.832031-9.992188 19.351563-12.097656 30.902344-32.9375 30.902344-55.742187v-28.53125c0-36.238281-29.488281-65.734375-65.734375-65.734375zm1.734375 80c0 35.289062-28.710938 64-64 64s-64-28.710938-64-64 28.710938-64 64-64 64 28.710938 64 64zm-111.792969-64c-10.246093 7.679688-18.582031 17.726562-24.207031 29.359375-5.625-11.632813-13.953125-21.679687-24.207031-29.359375zm-32.207031 64c0 35.289062-28.710938 64-64 64s-64-28.710938-64-64 28.710938-64 64-64 64 28.710938 64 64zm-203.183594 64c9.695313-39.390625 33.710938-74.03125 66.535156-97.289062-4.671874 10.152343-7.351562 21.402343-7.351562 33.289062 0 26.183594 12.703125 49.398438 32.207031 64zm186.976563 0c10.246093-7.679688 18.582031-17.726562 24.207031-29.359375 5.625 11.632813 13.953125 21.6875 24.207031 29.359375zm208.207031-49.734375c0 17.253906-8.742188 33.023437-23.375 42.175781-7.921875 4.949219-17.023438 7.558594-26.359375 7.558594h-14.472656c19.503906-14.601562 32.207031-37.816406 32.207031-64s-12.703125-49.398438-32.207031-64h14.472656c27.421875 0 49.734375 22.3125 49.734375 49.734375zm0 0"/><path d="m398.265625.5h-182.265625c-119.105469 0-216 96.894531-216 216v8h398.265625c18.335937 0 36.246094-5.144531 51.796875-14.855469 28.769531-17.976562 45.9375-48.960937 45.9375-82.878906v-28.53125c0-53.894531-43.839844-97.734375-97.734375-97.734375zm81.734375 126.265625c0 28.367187-14.359375 54.269531-38.414062 69.308594-13.011719 8.128906-27.984376 12.425781-43.320313 12.425781h-382.105469c4.207032-106.585938 92.238282-192 199.839844-192h182.265625c45.070313 0 81.734375 36.664062 81.734375 81.734375zm0 0"/><path d="m192 96.5c8.824219 0 16 7.175781 16 16s-7.175781 16-16 16v16c17.648438 0 32-14.351562 32-32s-14.351562-32-32-32-32 14.351562-32 32h16c0-8.824219 7.175781-16 16-16zm0 0"/><path d="m336 96.5c8.824219 0 16 7.175781 16 16s-7.175781 16-16 16v16c17.648438 0 32-14.351562 32-32s-14.351562-32-32-32-32 14.351562-32 32h16c0-8.824219 7.175781-16 16-16zm0 0"/></svg>