<svg id="Capa_1" enable-background="new 0 0 512 512" height="512" viewBox="0 0 512 512" width="512" xmlns="http://www.w3.org/2000/svg"><path d="m311.076 36.271h-280.818c-16.642 0-30.258 13.616-30.258 30.258v85.971c0 16.642 13.616 30.258 30.258 30.258h195.151c30.745-29.923 69.633-45.271 115.924-45.271v-70.958c0-16.642-13.616-30.258-30.257-30.258z" fill="#685e68"/><path d="m30.258 151.68c-16.642 0-30.258-13.616-30.258-30.258v31.077c0 16.642 13.616 30.258 30.258 30.258h195.151c13.598-13.234 28.792-23.612 45.511-31.077z" fill="#554e56"/><path d="m225.409 181.727h-195.151c-16.642 0-30.258 13.616-30.258 30.257v88.031c0 16.642 13.616 30.258 30.258 30.258h145.212c-1.121-7.9-1.713-15.971-1.713-24.181 0-47.965 19.796-93.36 51.652-124.365z" fill="#685e68"/><path d="m173.908 299.196h-143.65c-16.642 0-30.258-13.616-30.258-30.258v31.077c0 16.642 13.616 30.258 30.258 30.258h145.213c-1.121-7.9-1.713-15.971-1.713-24.181-.001-2.306.059-4.603.15-6.896z" fill="#554e56"/><path d="m175.47 329.243h-145.212c-16.642 0-30.258 13.616-30.258 30.258v85.971c0 16.642 13.616 30.258 30.258 30.258h298.46c.92 0 1.815-.106 2.68-.295-81.538-4.683-144.637-66.6-155.928-146.192z" fill="#685e68"/><path d="m30.258 444.652c-16.642 0-30.258-13.616-30.258-30.258v31.077c0 16.642 13.616 30.258 30.258 30.258h298.46c.92 0 1.815-.106 2.68-.295-32.748-1.88-62.517-12.999-87.154-30.782z" fill="#554e56"/><path d="m341.333 134.396c-94.257 0-170.667 76.41-170.667 170.667s76.41 170.667 170.667 170.667 170.667-76.411 170.667-170.668c0-94.256-76.41-170.666-170.667-170.666zm0 276.351c-58.275 0-105.685-47.41-105.685-105.685s47.41-105.685 105.685-105.685 105.685 47.41 105.685 105.685-47.41 105.685-105.685 105.685z" fill="#554e56"/><path d="m201.315 305.062c0-89.091 68.268-162.224 155.343-169.974-5.049-.449-10.158-.692-15.324-.692-94.257 0-170.667 76.41-170.667 170.667s76.41 170.667 170.667 170.667c5.166 0 10.275-.243 15.324-.692-87.076-7.752-155.343-80.885-155.343-169.976z" fill="#433f43"/><path d="m315.589 303.126c.598-8.058 4.887-15.086 11.189-19.395l-30.357-17.527-18.779-45.422c-6.401 4.849-12.234 10.409-17.382 16.562l11.355 27.465-29.527 3.907c-2.728 7.425-4.64 15.239-5.639 23.332l48.776-6.454z" fill="#ffe55a"/><path d="m292.549 256.839-14.907-36.056c-6.401 4.849-12.234 10.409-17.382 16.562l11.355 27.465-29.527 3.907c-2.728 7.425-4.641 15.239-5.639 23.332l46.819-6.195c1.775-10.208 4.933-19.948 9.281-29.015z" fill="#ffd500"/><path d="m367.078 303.126 30.363-17.53 48.776 6.454c-.998-8.093-2.911-15.908-5.639-23.332l-29.527-3.907 11.355-27.465c-5.148-6.153-10.981-11.713-17.382-16.562l-18.779 45.422-30.357 17.527c6.303 4.307 10.592 11.335 11.19 19.393z" fill="#ffe55a"/><path d="m330.138 281.784c3.387-1.632 7.184-2.546 11.195-2.546s7.809.914 11.195 2.546v-35.046l29.975-39.011c-7.294-3.097-15.006-5.392-23.024-6.786l-18.147 23.617-18.147-23.617c-8.018 1.393-15.73 3.689-23.024 6.786l29.975 39.011v35.046z" fill="#ffe55a"/><path d="m331.602 211.894-8.415-10.952c-8.018 1.393-15.73 3.689-23.024 6.786l14.126 18.384c5.274-5.293 11.075-10.058 17.313-14.218z" fill="#ffd500"/><path d="m367.078 306.998c-.598 8.058-4.887 15.086-11.189 19.395l30.357 17.527 18.779 45.422c6.401-4.849 12.234-10.409 17.382-16.562l-11.355-27.465 29.527-3.907c2.728-7.425 4.64-15.239 5.639-23.332l-48.776 6.454z" fill="#ffe55a"/><path d="m352.529 328.34c-3.387 1.632-7.184 2.546-11.195 2.546s-7.809-.914-11.195-2.546v35.046l-29.975 39.011c7.294 3.097 15.006 5.392 23.024 6.786l18.147-23.617 18.147 23.617c8.018-1.393 15.73-3.689 23.024-6.786l-29.975-39.011v-35.046z" fill="#ffe55a"/><path d="m314.289 384.013-14.126 18.384c7.294 3.097 15.006 5.392 23.024 6.786l8.415-10.952c-6.238-4.16-12.039-8.926-17.313-14.218z" fill="#ffd500"/><path d="m315.589 306.998-30.363 17.53-48.776-6.454c.998 8.093 2.911 15.908 5.639 23.332l29.527 3.907-11.355 27.465c5.148 6.153 10.981 11.713 17.382 16.562l18.779-45.422 30.357-17.527c-6.303-4.307-10.592-11.335-11.19-19.393z" fill="#ffe55a"/><path d="m283.269 324.27-46.819-6.195c.998 8.093 2.911 15.908 5.639 23.332l29.527 3.907-11.355 27.465c5.148 6.153 10.981 11.713 17.382 16.563l14.907-36.056c-4.349-9.067-7.507-18.807-9.281-29.016z" fill="#ffd500"/><path d="m258.788 418.631c-1.663 0-3.338-.534-4.75-1.637-72.825-56.87-72.942-166.9 0-223.864 3.363-2.628 8.219-2.029 10.845 1.334s2.029 8.218-1.334 10.845c-64.909 50.691-65.01 148.738 0 199.506 5.79 4.522 2.557 13.816-4.761 13.816z" fill="#ffe55a"/><path d="m417.784 415.66c-2.626-3.363-2.029-8.218 1.334-10.845 64.909-50.689 65.01-148.736 0-199.506-3.363-2.627-3.96-7.482-1.334-10.845 2.626-3.364 7.481-3.961 10.845-1.334 72.825 56.872 72.942 166.902 0 223.864-3.374 2.635-8.228 2.017-10.845-1.334z" fill="#ffe55a"/><path d="m341.334 418.473c-62.535 0-113.411-50.875-113.411-113.41s50.876-113.411 113.411-113.411 113.411 50.876 113.411 113.411-50.876 113.41-113.411 113.41zm0-211.369c-54.015 0-97.959 43.944-97.959 97.959 0 54.014 43.944 97.958 97.959 97.958s97.958-43.944 97.958-97.958c0-54.015-43.944-97.959-97.958-97.959z" fill="#d9edff"/><path d="m304.098 395.661c-35.6-14.685-60.723-49.761-60.723-90.599 0-40.839 25.123-75.915 60.724-90.6 15.09-11.378 33.1-19.074 52.687-21.754-5.054-.692-10.211-1.057-15.453-1.057-62.535 0-113.411 50.876-113.411 113.411s50.876 113.41 113.411 113.41c5.241 0 10.398-.365 15.453-1.057-19.587-2.68-37.598-10.376-52.688-21.754z" fill="#b4dbff"/><path d="m341.334 278.208c-14.808 0-26.855 12.047-26.855 26.855s12.047 26.854 26.855 26.854c14.807 0 26.854-12.046 26.854-26.854s-12.047-26.855-26.854-26.855z" fill="#fbc700"/><path d="m345.084 305.063c0-9.124 4.577-17.195 11.552-22.05-4.345-3.025-9.619-4.805-15.303-4.805-14.808 0-26.855 12.047-26.855 26.855s12.047 26.854 26.855 26.854c5.684 0 10.957-1.78 15.303-4.805-6.975-4.855-11.552-12.926-11.552-22.049z" fill="#e9b900"/></svg>