<svg viewBox="-1 0 512 512.00058" xmlns="http://www.w3.org/2000/svg"><path d="m121.25 334.4375-45.710938-32.160156c-6.726562-16.804688-17.925781-31.742188-30.617187-39.066406-20.566406-11.878907-37.242187.726562-37.242187 28.152343 0 27.429688 16.675781 59.289063 37.242187 71.164063 9.75 5.628906 18.621094 5.75 25.261719 1.40625zm0 0" fill="#23292e"/><path d="m371.851562 479.4375-45.710937-32.15625c-6.722656-16.808594-17.925781-31.742188-30.617187-39.070312-20.566407-11.875-37.242188.730468-37.242188 28.15625 0 27.425781 16.675781 59.285156 37.242188 71.160156 9.75 5.628906 18.621093 5.75 25.261718 1.410156zm0 0" fill="#23292e"/><path d="m510.382812 343.628906c0-4.957031-1.796874-9.746094-5.054687-13.480468l-32.019531-36.71875h-.003906l-24.59375-107.609376c-4.46875-17.382812-15.742188-32.238281-31.28125-41.21875l-246.03125-142.203124c-6.609376-3.816407-14.140626-2.824219-19.492188 1.179687l-140.214844 82.515625c-6.597656 2.40625-11.691406 8.640625-11.691406 16.648438v177.488281c0 8.625 4.605469 16.589843 12.078125 20.894531l331.824219 191.1875c14.175781 8.167969 30.246094 12.464844 46.605468 12.464844 6.800782 0 13.480469-1.792969 19.367188-5.195313l88.953125-51.453125c7.152344-4.136718 11.554687-11.773437 11.554687-20.035156zm0 0" fill="#ffd613"/><path d="m503.089844 361.765625-3.039063 1.757813-100.136719 56.238281.042969.070312c-2.90625.738281-5.90625 1.128907-8.929687 1.128907h-15.886719c-6.101563 0-11.902344-2.636719-15.914063-7.234376l-25.476562-29.214843-5.289062-6.0625-24.597657-107.609375c-4.46875-17.382813-15.738281-32.238282-31.277343-41.21875l-246.03125-142.203125c-11.800782-6.816407-26.554688 1.695312-26.554688 15.324219v177.488281c0 8.625 4.605469 16.589843 12.078125 20.898437l331.824219 191.183594c14.175781 8.167969 30.246094 12.464844 46.605468 12.464844 6.800782 0 13.480469-1.792969 19.367188-5.195313l88.953125-51.453125c7.152344-4.136718 11.554687-11.773437 11.554687-20.035156v-78.972656c0 5.214844-2.78125 10.035156-7.292968 12.644531zm0 0" fill="#c98000"/><g fill="#23292e"><path d="m12.078125 301.128906 6.460937 3.722656c2.972657-12.894531-2.605468-33.820312-2.605468-33.820312l-15.933594-7.472656v16.671875c0 8.625 4.605469 16.589843 12.078125 20.898437zm0 0"/><path d="m292.160156 420.960938-256.265625-148.335938.855469 21.371094 254.683594 147.042968zm0 0"/><path d="m510.382812 428.09375v-10.273438l-83.371093 48.132813c-21.972657 12.6875-49.042969 12.6875-71.011719 0l-30.527344-17.621094v33.363281l18.429688 10.617188c14.050781 8.097656 29.96875 12.390625 46.183594 12.464844 6.972656.03125 13.839843-1.757813 19.878906-5.25l88.863281-51.398438c7.148437-4.136718 11.554687-11.773437 11.554687-20.035156zm0 0"/></g><path d="m503.089844 361.765625-3.039063 1.757813v29.867187c0 5.300781 5.742188 8.617187 10.332031 5.964844v-50.234375c0 5.214844-2.78125 10.035156-7.292968 12.644531zm0 0" fill="#fff"/><path d="m399.914062 419.757812h-.003906c-3.09375.785157-6.285156 1.203126-9.507812 1.203126h-15.261719c-6.101563 0-11.902344-2.640626-15.914063-7.238282l-9.480468-10.871094 8.746094 36.140626c3.429687 14.164062 16.109374 24.140624 30.679687 24.140624 7.046875 0 13.972656-1.789062 20.140625-5.199218 5.527344-3.054688 7.417969-10.085938 4.175781-15.503906zm0 0" fill="#fff"/><path d="m308.628906 293.429688-4.761718-22.589844c-4.46875-17.382813-15.742188-32.238282-31.28125-41.21875l-246.03125-142.203125c-11.800782-6.816407-26.554688 1.695312-26.554688 15.324219v11.378906zm0 0" fill="#e7c712"/><path d="m316.5 288.886719 20.277344 84.683593 125.917968-73.910156-17.222656-85.238281zm0 0" fill="#304e75"/><path d="m332.769531 479.375c0 27.425781-16.675781 40.03125-37.246093 28.15625-20.566407-11.875-37.242188-43.734375-37.242188-71.164062 0-27.425782 16.675781-40.03125 37.242188-28.152344 20.570312 11.875 37.246093 43.734375 37.246093 71.160156zm0 0" fill="#2e373d"/><path d="m313.835938 468.445312c0 13.484376-8.199219 19.679688-18.3125 13.84375-10.113282-5.839843-18.3125-21.503906-18.3125-34.988281s8.199218-19.683593 18.3125-13.84375c10.113281 5.835938 18.3125 21.503907 18.3125 34.988281zm0 0" fill="#cecece"/><path d="m305.457031 463.605469c0 7.316406-4.449219 10.675781-9.933593 7.507812-5.484376-3.167969-9.929688-11.664062-9.929688-18.976562s4.445312-10.675781 9.929688-7.507813c5.484374 3.167969 9.933593 11.664063 9.933593 18.976563zm0 0" fill="#627681"/><path d="m82.167969 334.371094c0 27.429687-16.675781 40.035156-37.242188 28.15625-20.570312-11.875-37.246093-43.734375-37.246093-71.160156 0-27.425782 16.675781-40.03125 37.246093-28.15625 20.566407 11.875 37.242188 43.734374 37.242188 71.160156zm0 0" fill="#2e373d"/><path d="m63.234375 323.441406c0 13.484375-8.199219 19.683594-18.3125 13.84375s-18.3125-21.503906-18.3125-34.988281 8.199219-19.679687 18.3125-13.84375c10.117187 5.839844 18.3125 21.503906 18.3125 34.988281zm0 0" fill="#cecece"/><path d="m54.855469 318.605469c0 7.3125-4.445313 10.671875-9.933594 7.507812-5.484375-3.167969-9.929687-11.664062-9.929687-18.976562 0-7.316407 4.445312-10.675781 9.929687-7.507813 5.488281 3.164063 9.933594 11.660156 9.933594 18.976563zm0 0" fill="#627681"/><path d="m302.671875 308.140625 13.828125 64.019531-56.082031-32.378906c-21.046875-12.148438-34.015625-34.605469-34.015625-58.910156v-34.621094l54.144531 31.457031c11.328125 6.582031 19.363281 17.628907 22.125 30.433594zm0 0" fill="#243b58"/><path d="m397.648438 261.617188 56.082031 32.378906-13.824219-64.019532c-.777344-3.589843-2.007812-7.023437-3.570312-10.28125l-53.167969 30.699219c4.246093 4.320313 9.09375 8.113281 14.480469 11.222657zm0 0" fill="#59718b"/><path d="m399.914062 419.757812 13.574219 22.671876c7.839844 14.195312 25.777344 11.46875 39.855469 3.421874l25.015625-14.59375c13.433594-7.835937 21.691406-14.457031 21.691406-30.007812v-37.726562zm0 0" fill="#23292e"/><path d="m336.777344 373.570312 63.136718 46.1875 100.136719-56.234374-37.355469-63.863282zm0 0" fill="#e7c712"/></svg>