<svg id="Capa_1" enable-background="new 0 0 512 512" viewBox="0 0 512 512" xmlns="http://www.w3.org/2000/svg"><g><path d="m361.713 501.146 5.61-70.33-91.755 4.182v55.825c0 1.875.297 3.68.847 5.372z" fill="#537983"/><path d="m367.078 441.628.246-10.813-10.784.491 1.601 1.839v58.049c0 2.761-2.239 5-5 5h-76.726c2.263 6.965 8.806 12 16.526 12h59.829c9.594 0 17.372-7.778 17.372-17.372v-45.677z" fill="#3e5959"/><path d="m309.122 505.694c-4.204 0-7.611-3.408-7.611-7.612v-60.549c0-4.204 3.407-7.612 7.611-7.612s7.612 3.408 7.612 7.612v60.549c-.001 4.205-3.408 7.612-7.612 7.612zm35.076-7.611v-60.549c0-4.204-3.407-7.612-7.612-7.612s-7.611 3.408-7.611 7.612v60.549c0 4.204 3.407 7.612 7.611 7.612s7.612-3.408 7.612-7.612z" fill="#3e5959"/><g><g><path d="m275.568 410.689-173.384-123.165-13.991-15.762 13.991-15.762 173.384-123.165z" fill="#62dbfb"/></g></g><g><g><path d="m39.136 366.335v105.261c0 2.802-2.272 5.074-5.074 5.074h-23.913c-1.401 0-2.537 1.136-2.537 2.537v26.45c0 1.401 1.136 2.537 2.537 2.537h24.991c19.617 0 35.52-15.903 35.52-35.52v-106.339l-17.194-10.149z" fill="#cbe5e8"/></g></g><g><path d="m7.611 358.184c-4.204 0-7.611-3.408-7.611-7.611v-47.826c0-12.591 10.244-22.835 22.834-22.835h8.69v-23.912c0-4.204 3.407-7.611 7.611-7.611s7.611 3.408 7.611 7.611v31.524c0 4.204-3.407 7.611-7.611 7.611h-16.301c-4.197 0-7.611 3.414-7.611 7.612v47.826c0 4.203-3.407 7.611-7.612 7.611z" fill="#537983"/></g><g><g><path d="m310.907 300.269c4.605-4.12 10.569-6.389 16.794-6.389 1.552 0 3.114.143 4.642.425 4.453.823 9.015 1.239 13.56 1.239h.001c26.828 0 51.792-14.37 65.147-37.501 8.984-15.562 12.076-33.867 8.705-51.544l-2.475-12.973 10.858-7.518c6.645-4.6 12.089-10.527 16.183-17.618 2.733-4.735 4.729-9.811 5.932-15.087l2.48-10.885 10.521-3.734c17.263-6.127 38.846-20.921 38.597-39.262l-10.782-47.855c-10.612-9.572-24.466-15.616-39.675-16.191-5.772-.218-11.379.34-16.726 1.579-1.032.239-2.092-.168-2.695-1.039-6.087-8.798-14.161-16.416-24.024-22.111-35.696-20.609-81.502-8.335-102.111 27.361-3.878 6.717-6.622 13.91-8.234 21.307-.396 1.816-1.75 3.279-3.539 3.781-25.839 7.248-48.575 24.302-62.617 48.623-7.944 13.759-12.483 28.925-13.669 44.286-.11 1.43-1.348 2.472-2.777 2.36-1.813-.142-3.67-.129-5.557.05-15.055 1.432-27.124 13.681-28.343 28.754-.926 11.454 4.276 21.754 12.679 27.976.959.71 1.277 1.984.797 3.076-14.441 32.867-5.565 71.323 21.071 94.639l54.859 10.911c15.316.001 29.049-16.503 40.398-26.66z" fill="#c8effe"/></g></g><g><g><path d="m511.994 97.499c-.247-18.127-8.286-34.531-20.925-45.932l.629 46.209c.25 18.341-11.181 34.781-28.444 40.908l-10.521 3.734-2.48 10.885c-1.202 5.276-3.198 10.352-5.932 15.087-4.094 7.091-9.538 13.018-16.183 17.618l-10.858 7.518 2.475 12.973c3.372 17.677.279 35.982-8.705 51.544-13.355 23.131-38.319 37.501-65.147 37.501-.001 0 0 0-.001 0-4.545 0-9.107-.417-13.56-1.239-1.528-.282-3.09-.425-4.642-.425-6.225 0-12.189 2.269-16.794 6.389-11.349 10.157-26.035 15.75-41.353 15.75h-53.906c3.96 3.466 8.312 6.598 13.039 9.327 31.451 18.158 70.059 13.047 95.755-9.95 1.143-1.023 2.707-1.409 4.216-1.13 38.592 7.127 79.26-10.199 99.971-46.073 11.704-20.271 15.251-43.542 11.064-65.496 8.902-6.163 16.531-14.326 22.207-24.157 3.831-6.635 6.525-13.62 8.144-20.727 24.71-8.77 42.33-32.511 41.951-60.314z" fill="#99e6fc"/></g></g><g><g><path d="m39.136 291.52v74.815h31.524v-73.736c0-2.802 2.272-5.074 5.074-5.074h26.45v-31.525h-27.528c-19.617 0-35.52 15.903-35.52 35.52z" fill="#fe9738"/></g></g><g><g><path d="m322.854 240.238h-55.168c-13.058 0-23.643-10.585-23.643-23.643 0-13.058 10.585-23.643 23.643-23.643h28.433c6.552 0 12.37 4.193 14.442 10.409z" fill="#d83131"/></g></g><g><g><path d="m498.871 437.265-7.169-338.886h-86.121c-30.578 0-57.725 19.567-67.395 48.576l-31.095 93.284-26.513 19.885c-22.999 17.25-36.535 44.321-36.535 73.07v76.432c0 5.448 1.227 10.609 3.419 15.223z" fill="#e94444"/></g></g><g><g><path d="m488.09 98.379v321.395c0 2.803-2.272 5.074-5.074 5.074h-235.553c5.701 12 17.932 20.297 32.101 20.297h227.362c2.803 0 5.074-2.272 5.074-5.074v-57.974l-13.129-36.393 13.129-42.418v-63.049l-13.129-42.741 13.129-67.593v-31.524z" fill="#d83131"/></g></g><g><g><path d="m385.903 303.286-10.149 23.643 10.149 23.643 4.727 3.152c6.169 4.113 12.578 7.799 19.182 11.045 2.485 1.222 4.998-7.768 7.536-6.671s5.101 12.278 7.687 13.248c5.346 2.004 10.79 3.736 16.309 5.188 2.255.593 4.522-9.008 6.801-8.509 2.791.612 5.599 11.303 8.422 11.773 5.387.898 10.827 1.536 16.299 1.908 3.81.259 6.263-8.408 10.099-8.408l5.124 8.797h3.613l5.103-42.461-5.103-36.349h-3.612l-7.612 10.149-7.611-10.149h-16.299l-7.611 10.149-7.612-10.149h-16.309l-7.612 10.149-7.611-10.149h-23.91z" fill="#537983"/></g></g><g><g><path d="m405.582 129.903c-17.036 0-32.101 10.859-37.489 27.02l-25.545 76.636c-1.095 3.286 1.35 6.679 4.814 6.679h144.341l10.149-41.085-10.149-69.25z" fill="#537983"/></g></g><g><g><path d="m488.09 129.903h23.91v110.335h-23.91z" fill="#3e5959"/></g></g><g><g><path d="m488.09 303.286h23.91v78.811h-23.91z" fill="#3e5959"/></g></g><g><g><path d="m300.94 303.286c-14.012 0-25.372 11.359-25.372 25.372v11.766c0 5.605 4.544 10.149 10.149 10.149h37.138l10.149-19.234-10.149-28.052h-21.915z" fill="#fe9738"/></g></g><g><g><path d="m328.468 413.621h-42.751c-5.605 0-10.149-4.544-10.149-10.149v-11.227c0-5.605 4.544-10.149 10.149-10.149h42.751c5.605 0 10.149 4.544 10.149 10.149v11.227c-.001 5.606-4.544 10.149-10.149 10.149z" fill="#fe9738"/></g></g><g><g><circle cx="220.4" cy="27.449" fill="#c8effe" r="23.643"/></g></g><path d="m162.544 299.35c-1.524 0-3.063-.456-4.401-1.407l-28.6-20.317c-3.427-2.435-4.231-7.186-1.797-10.613 2.435-3.427 7.184-4.233 10.613-1.797l28.6 20.317c3.427 2.435 4.231 7.186 1.797 10.613-1.484 2.09-3.83 3.204-6.212 3.204z" fill="#01d0fb"/><g fill="#678d98"><path d="m456.568 303.286h-15.223v73.248c5.017 1.32 10.097 2.41 15.223 3.264z"/><path d="m409.813 364.77c4.97 2.443 10.051 4.638 15.223 6.576v-68.059h-15.223z"/><path d="m488.09 382.097v-78.811h-15.223v78.42c3.81.259 7.636.39 11.472.39h3.751z"/></g><g><g><path d="m322.854 303.286h63.049v47.286h-63.049z" fill="#fff"/></g></g></g><g/><g/><g/><g/><g/><g/><g/><g/><g/><g/><g/><g/><g/><g/><g/></svg>