<svg id="Layer_1" enable-background="new 0 0 24 24" viewBox="0 0 24 24" xmlns="http://www.w3.org/2000/svg" xmlns:xlink="http://www.w3.org/1999/xlink"><linearGradient id="SVGID_1_" gradientUnits="userSpaceOnUse" x1="1.382" x2="20.96" y1="7.826" y2="16.955"><stop offset="0" stop-color="#fff" stop-opacity=".3"/><stop offset="1" stop-color="#fff" stop-opacity="0"/></linearGradient><linearGradient id="SVGID_2_" gradientUnits="userSpaceOnUse" x1=".406" x2="21.953" y1="7.519" y2="17.566"><stop offset="0" stop-color="#fff" stop-opacity=".2"/><stop offset="1" stop-color="#fff" stop-opacity="0"/></linearGradient><g><path d="m23.8764648 8.1708984c-.149414-.1704101-3.743164-4.1708984-11.8764648-4.1708984s-11.7270508 4.0004883-11.8764648 4.1708984c-.1103516.1259766-.1499024.2988282-.1059571.4604493l3 11c.0439453.1606445.1650391.2880859.3227539.3413086.15625.0541992.331543.0244141.4638672-.0756836.0249024-.019043 2.5590821-1.8969727 8.1958008-1.8969727s8.1708984 1.8779297 8.1958008 1.8969727c.0883789.0668945.1958008.1020508.3041992.1020508.0537109 0 .1079102-.0083008.159668-.0263672.1577148-.0532227.2788086-.1806641.3227539-.3413086l3-11c.0439453-.1616211.0043945-.3344727-.1059571-.4604493z" fill="#303c42"/><path d="m11.9423828 17c4.4638672 0 7.0908203 1.1118164 8.1943359 1.7202148l2.7475586-10.0737305c-.802246-.7646484-4.2724609-3.6464843-10.9418945-3.6464843-6.6977539 0-10.1455078 2.8803711-10.9423828 3.6450195l2.7480469 10.0751953c1.1035156-.6083984 3.7304687-1.7202148 8.1943359-1.7202148z" fill="#bdddf4"/><path d="m11.9423828 16c-4.3661499 0-7.0235038 1.2380257-8.4287157 1.8609505l.23438.8592644c1.1035154-.6083985 3.7304685-1.7202149 8.1943357-1.7202149s7.0908203 1.1118164 8.1943359 1.7202148l.2428246-.8902645c-1.4052124-.6228637-4.0710716-1.8299503-8.4371605-1.8299503z" fill="#010101" opacity=".1"/><path d="m11.9423828 6c6.1900024 0 9.6201782 2.4799194 10.7232666 3.4480591l.2186279-.8015747c-.802246-.7646485-4.2724609-3.6464844-10.9418945-3.6464844-6.6977539 0-10.1455078 2.8803711-10.9423828 3.6450195l.2183838.8006592c1.09729-.96875 4.5097656-3.4456787 10.723999-3.4456787z" fill="#fff" opacity=".2"/><path d="m11.9423828 17c4.4638672 0 7.0908203 1.1118164 8.1943359 1.7202148l2.7475586-10.0737305c-.802246-.7646484-4.2724609-3.6464843-10.9418945-3.6464843-6.6977539 0-10.1455078 2.8803711-10.9423828 3.6450195l2.7480469 10.0751953c1.1035156-.6083984 3.7304687-1.7202148 8.1943359-1.7202148z" fill="url(#SVGID_1_)"/><g fill="#303c42"><path d="m12.5 19c0-.2763672-.2236328-.5-.5-.5s-.5.2236328-.5.5c-.2763672 0-.5.2236328-.5.5s.2236328.5.5.5h1c.2763672 0 .5-.2236328.5-.5s-.2236328-.5-.5-.5z"/><path d="m15.1206055 10.230957c.2333984.1347656.4365234.3242188.5864258.5488281.0961914.144043.2543945.222168.4160156.222168.0952148 0 .1918945-.0273438.2773438-.0844727.2294922-.1533203.2915039-.4638672.1376953-.6933594-.2348633-.3515625-.5522461-.6484375-.918457-.859375-.2392578-.1381836-.5454102-.0561523-.6826172.1835938-.1381837.2392579-.0556641.5449219.1835937.6826172z"/><path d="m12.9174805 10.4370117c.1030273 0 .2070313-.0317383.2963867-.0976563.2167969-.1601563.4711914-.2685547.7353516-.3139648.2724609-.0463867.4550781-.3051758.4082031-.5771484-.0463867-.2719727-.3041992-.4521484-.5771484-.4082031-.4169922.0712891-.8178711.2421875-1.1601563.4946289-.222168.1635742-.2695313.4765625-.1054688.6992188.0976563.1328124.2495118.2031249.4028321.2031249z"/><path d="m16 12v.5c0 .2763672.2236328.5.5.5s.5-.2236328.5-.5v-.5c0-.2763672-.2236328-.5-.5-.5s-.5.2236328-.5.5z"/><path d="m11.3798828 9.534668c-.3422852-.2524414-.7431641-.4233398-1.1601563-.4946289-.2719726-.0449219-.5307617.1362304-.5771484.4082031-.046875.2719727.1357422.5307617.4082031.5771484.2641602.0454102.5185547.1538086.7353516.3139648.0893555.065918.1933594.0976563.2963867.0976563.1533203 0 .3051758-.0703125.402832-.203125.1640626-.2226562.1166993-.5356445-.1054687-.6992187z"/><path d="m8.3803711 9.3647461c-.3662109.2109375-.6835938.5078125-.918457.859375-.1538086.2294922-.0917969.5400391.1376953.6933594.0854492.0571289.1816406.0844727.2773438.0844727.1616211 0 .3198242-.078125.4160156-.222168.1499023-.2246094.3530273-.4140625.5864258-.5488281.2392578-.1376953.3217773-.4433594.1835938-.6826172-.1376954-.2397461-.4428712-.3217774-.6826173-.1835938z"/><path d="m12.0037842 10.7128296c-.0063477.0007935-.0127563-.0001831-.019104.0008545-.0564575-.0059204-.1142578-.0065918-.172184.0079956-.2680626.0668945-.4311485.3383789-.3637657.605957.0341797.1367188.0512695.2788086.0512695.4223633v.4912109c0 .2763672.2236328.5.5.5s.5-.2236328.5-.5v-.4912109c0-.1435547.0170898-.2856445.0512695-.4223633.0673828-.2675781-.0957031-.5390625-.3637733-.605957-.0593834-.0150146-.1183434-.0147705-.1757774-.0084839-.0026246-.0003662-.0052491.000061-.0079346-.0003662z"/><path d="m12 13.3007813c-.2763672 0-.5.2236328-.5.5v1.0400391c0 .2763672.2236328.5.5.5s.5-.2236328.5-.5v-1.0400391c0-.2763672-.2236328-.5-.5-.5z"/><path d="m12 15.9599609c-.2763672 0-.5.2236328-.5.5v1.0400391c0 .2763672.2236328.5.5.5s.5-.2236328.5-.5v-1.0400391c0-.2763671-.2236328-.5-.5-.5z"/><path d="m7.5 11.5c-.2763672 0-.5.2236328-.5.5v.5c0 .2763672.2236328.5.5.5s.5-.2236328.5-.5v-.5c0-.2763672-.2236328-.5-.5-.5z"/></g><path d="m23.8764648 8.1708984c-.149414-.1704101-3.743164-4.1708984-11.8764648-4.1708984s-11.7270508 4.0004883-11.8764648 4.1708984c-.1103516.1259766-.1499024.2988282-.1059571.4604493l3 11c.0439453.1606445.1650391.2880859.3227539.3413086.15625.0541992.331543.0244141.4638672-.0756836.0249024-.019043 2.5590821-1.8969727 8.1958008-1.8969727s8.1708984 1.8779297 8.1958008 1.8969727c.0883789.0668945.1958008.1020508.3041992.1020508.0537109 0 .1079102-.0083008.159668-.0263672.1577148-.0532227.2788086-.1806641.3227539-.3413086l3-11c.0439453-.1616211.0043945-.3344727-.1059571-.4604493zm-11.3764648 10.8291016c0-.2763672-.2236328-.5-.5-.5s-.5.2236328-.5.5c-.2763672 0-.5.2236328-.5.5s.2236328.5.5.5h1c.2763672 0 .5-.2236328.5-.5s-.2236328-.5-.5-.5z" fill="url(#SVGID_2_)"/></g><g/><g/><g/><g/><g/><g/><g/><g/><g/><g/><g/><g/><g/><g/><g/></svg>